<svg xmlns="http://www.w3.org/2000/svg" width="470" height="96" viewBox="0 0 470 96" fill="none"
         role="img" aria-label="ProofMark core dark">
      <defs>
        <radialGradient id="pc-d-fi" cx="50%" cy="48%" r="52%">
          <stop offset="0%"   stop-color="#6C3EF4" stop-opacity=".07"/>
          <stop offset="100%" stop-color="#00D4AA" stop-opacity=".015"/>
        </radialGradient>
        <linearGradient id="pc-d-ri" x1="15%" y1="0%" x2="85%" y2="100%">
          <stop offset="0%"   stop-color="#5830CC"/>
          <stop offset="100%" stop-color="#00B896"/>
        </linearGradient>
        <linearGradient id="pc-d-ck" x1="0%" y1="100%" x2="100%" y2="0%">
          <stop offset="0%"   stop-color="#00D4AA"/>
          <stop offset="40%"  stop-color="#5EE0D8"/>
          <stop offset="100%" stop-color="#E8E4FF"/>
        </linearGradient>
        <linearGradient id="pc-d-wm" x1="0%" y1="0%" x2="0%" y2="100%">
          <stop offset="0%"   stop-color="#D4D0F4"/>
          <stop offset="100%" stop-color="#A8A0D8"/>
        </linearGradient>
      </defs>
      <polygon points="50,12 82,30 82,70 50,88 18,70 18,30" fill="url(#pc-d-fi)"/>
      <polygon points="50,12 82,30 82,70 50,88 18,70 18,30"
               fill="none" stroke="url(#pc-d-ri)" stroke-width=".6" opacity=".15"/>
      <path d="M 50,4 L 10,27 L 10,73 L 50,96 L 90,73 L 90,27 L 88,26 L 84,28 L 78,20 Z"
            fill="none" stroke="url(#pc-d-ri)"
            stroke-width="2" stroke-linejoin="round" stroke-linecap="round" opacity=".82"/>
      <polyline points="20,52 36,69 80,24"
                fill="none" stroke="url(#pc-d-ck)"
                stroke-width="5.5" stroke-linecap="round" stroke-linejoin="round"/>
      <g id="proofmark-wordmark" aria-label="ProofMark">
  <path fill="url(#pc-d-wm)" d="M139.476 56.730000000000004V50.08H158.438Q159.578 50.08 160.357 49.719Q161.136 49.358000000000004 161.136 48.18Q161.136 46.964 160.357 46.622Q159.578 46.28 158.438 46.28H140.084V63.0H130.584V38.68H156.956Q159.806 38.68 162.29500000000002 39.079Q164.784 39.478 166.646 40.504000000000005Q168.50799999999998 41.53 169.572 43.392Q170.636 45.254000000000005 170.636 48.18Q170.636 51.106 169.572 52.816Q168.50799999999998 54.525999999999996 166.646 55.361999999999995Q164.784 56.198 162.29500000000002 56.464Q159.806 56.730000000000004 156.956 56.730000000000004Z M174.436 44.379999999999995H183.556V63.0H174.436ZM193.36 51.41Q190.89 51.41 188.838 51.866Q186.786 52.322 185.34199999999998 52.949Q183.898 53.576 183.176 54.184L183.1 52.36Q183.214 51.562 183.708 50.479Q184.202 49.396 185.038 48.237Q185.874 47.078 187.09 46.071Q188.306 45.064 189.883 44.437Q191.46 43.81 193.36 43.81Z M213.5 63.57Q207.458 63.57 203.449 62.582Q199.44 61.594 197.445 59.428Q195.45000000000002 57.262 195.45000000000002 53.728Q195.45000000000002 50.194 197.445 48.009Q199.44 45.824 203.449 44.817Q207.458 43.81 213.5 43.81Q219.50400000000002 43.81 223.47500000000002 44.817Q227.446 45.824 229.422 48.009Q231.398 50.194 231.398 53.728Q231.398 57.262 229.422 59.428Q227.446 61.594 223.47500000000002 62.582Q219.50400000000002 63.57 213.5 63.57ZM213.5 58.06Q216.312 58.06 218.212 57.585Q220.112 57.11 221.1 56.141Q222.088 55.172 222.088 53.728Q222.088 52.284 221.119 51.296Q220.15 50.308 218.25 49.814Q216.35 49.32 213.5 49.32Q210.688 49.32 208.731 49.814Q206.774 50.308 205.767 51.277Q204.76 52.246 204.76 53.728Q204.76 55.172 205.748 56.141Q206.736 57.11 208.69299999999998 57.585Q210.65 58.06 213.5 58.06Z M252.108 63.57Q246.066 63.57 242.05700000000002 62.582Q238.048 61.594 236.053 59.428Q234.05800000000002 57.262 234.05800000000002 53.728Q234.05800000000002 50.194 236.053 48.009Q238.048 45.824 242.05700000000002 44.817Q246.066 43.81 252.108 43.81Q258.112 43.81 262.083 44.817Q266.05400000000003 45.824 268.03000000000003 48.009Q270.00600000000003 50.194 270.00600000000003 53.728Q270.00600000000003 57.262 268.03000000000003 59.428Q266.05400000000003 61.594 262.083 62.582Q258.112 63.57 252.108 63.57ZM252.108 58.06Q254.92000000000002 58.06 256.82000000000005 57.585Q258.72 57.11 259.708 56.141Q260.696 55.172 260.696 53.728Q260.696 52.284 259.727 51.296Q258.758 50.308 256.858 49.814Q254.958 49.32 252.108 49.32Q249.296 49.32 247.339 49.814Q245.382 50.308 244.375 51.277Q243.368 52.246 243.368 53.728Q243.368 55.172 244.356 56.141Q245.344 57.11 247.301 57.585Q249.258 58.06 252.108 58.06Z M272.096 45.519999999999996H296.188V51.22H272.096ZM287.41 36.78H296.188V42.86H291.21000000000004Q289.69 42.822 288.87300000000005 43.012Q288.05600000000004 43.202 287.73300000000006 43.772Q287.41 44.342 287.41 45.519999999999996V63.0H278.29V43.620000000000005Q278.29 41.34 279.145 39.82Q280.0 38.3 281.995 37.54Q283.99 36.78 287.41 36.78Z"/>
  <path fill="#00D4AA" d="M331.50800000000004 59.96H325.50800000000004L347.348 37.4H357.348V63.0H347.348V45.56L350.348 46.8L334.54800000000006 63.0H322.54800000000006L306.708 46.84L309.74800000000005 45.599999999999994V63.0H299.74800000000005V37.4H309.74800000000005Z M375.968 63.56Q371.648 63.56 368.288 62.34Q364.928 61.12 362.988 58.8Q361.048 56.48 361.048 53.2Q361.048 49.76 362.988 47.44Q364.928 45.120000000000005 368.288 43.96Q371.648 42.8 375.968 42.8Q380.76800000000003 42.8 384.26800000000003 44.099999999999994Q387.76800000000003 45.4 389.668 47.739999999999995Q391.56800000000004 50.08 391.56800000000004 53.2Q391.56800000000004 55.519999999999996 390.48800000000006 57.42Q389.408 59.32 387.36800000000005 60.7Q385.32800000000003 62.08 382.44800000000004 62.82Q379.56800000000004 63.56 375.968 63.56ZM379.56800000000004 57.48Q382.608 57.48 385.148 57.099999999999994Q387.68800000000005 56.72 389.22800000000007 55.8Q390.76800000000003 54.879999999999995 390.76800000000003 53.2Q390.76800000000003 51.480000000000004 389.22800000000007 50.56Q387.68800000000005 49.64 385.148 49.28Q382.608 48.92 379.56800000000004 48.92Q375.488 48.92 373.24800000000005 49.980000000000004Q371.00800000000004 51.04 371.00800000000004 53.2Q371.00800000000004 54.6 372.00800000000004 55.56Q373.00800000000004 56.519999999999996 374.928 57.0Q376.848 57.48 379.56800000000004 57.48ZM390.76800000000003 43.4H400.36800000000005V63.0H391.32800000000003Q391.32800000000003 63.0 391.188 62.08Q391.048 61.16 390.908 59.44Q390.76800000000003 57.72 390.76800000000003 55.4Z M403.468 43.4H413.068V63.0H403.468ZM423.38800000000003 50.8Q420.788 50.8 418.62800000000004 51.28Q416.468 51.76 414.948 52.42Q413.428 53.08 412.668 53.72L412.588 51.8Q412.708 50.96 413.228 49.82Q413.748 48.68 414.628 47.459999999999994Q415.508 46.239999999999995 416.788 45.18Q418.068 44.120000000000005 419.728 43.46Q421.38800000000003 42.8 423.38800000000003 42.8Z M425.888 35.4H435.488V63.0H425.888ZM459.808 43.4 443.96799999999996 54.4 444.168 49.2 461.168 63.0H449.008L435.64799999999997 51.84L447.08799999999997 43.4Z"/>
</g>
    </svg>